<svg xmlns="http://www.w3.org/2000/svg" viewBox="260 350 1280 320" fill="#a5b4fc"><path d="M590.283 384.185C648.309 376.345 701.647 417.189 709.223 475.263C716.798 533.338 675.724 586.504 617.63 593.818C559.906 601.087 507.165 560.321 499.638 502.616C492.111 444.912 532.628 391.975 590.283 384.185Z"/><path fill="#1a1a2e" d="M596.949 442.607C623.201 438.418 647.919 456.188 652.317 482.412C656.715 508.637 639.148 533.502 612.966 538.111C586.486 542.772 561.282 524.957 556.833 498.434C552.385 471.911 570.398 446.844 596.949 442.607Z"/><path d="M958.601 384.474C1016.45 377.929 1068.68 419.452 1075.36 477.298C1082.04 535.144 1040.65 587.482 982.83 594.299C924.822 601.138 872.284 559.57 865.582 501.532C858.881 443.494 900.562 391.041 958.601 384.474Z"/><path fill="#1a1a2e" d="M961.126 442.994C987.153 437.947 1012.36 454.885 1017.54 480.893C1022.71 506.901 1005.9 532.202 979.925 537.503C953.768 542.841 928.26 525.885 923.051 499.696C917.842 473.508 934.919 448.077 961.126 442.994Z"/><path d="M316.408 389.13L385.119 389.168C395.074 389.162 413.046 388.664 422.367 389.619C427.641 390.134 432.824 391.338 437.784 393.202C466.713 404.346 482.841 443.536 461.693 468.352C454.703 476.555 448.209 479.576 438.735 483.519L439.151 483.674C452.726 488.776 464.776 497.908 470.052 511.655C482.735 544.705 468.762 572.683 437.982 586.176C423.078 591.095 392.494 589.519 375.655 589.487L318.205 589.466C318.174 553.675 317.709 516.836 318.433 481.127C339.719 480.836 362.731 480.549 383.95 481.457C378.389 472.743 368.452 459.949 362.048 451.263C346.662 430.68 331.448 409.968 316.408 389.13Z"/><path d="M1420.87 388.793C1427.53 387.814 1444.33 388.723 1451.41 389.023C1462.11 389.477 1471.45 389.43 1482.19 389.221C1481.06 404.845 1482.18 425.434 1482.2 441.778C1471.22 438.045 1418.75 423.22 1418.7 450.079C1418.68 462.443 1445.96 470.148 1457.38 474.81C1495.33 490.314 1499.9 540.212 1474.63 568.877C1460.77 584.535 1437.41 588.991 1416.21 589.428L1356.02 589.348C1356.05 571.316 1355.92 553.285 1355.62 535.255C1374.24 540.349 1393.87 544.124 1413.22 543.259C1420.85 542.918 1435.81 537.94 1433.39 528.145C1430.11 514.822 1405.26 510.953 1394.36 505.598C1384.37 500.693 1376 496.662 1369 487.442C1353.5 467.293 1356.4 431.326 1372.17 412.147C1384.67 396.937 1401.97 390.782 1420.87 388.793Z"/><path d="M1058.68 389.261C1080.51 389.476 1102.33 389.566 1124.16 389.531C1137.66 415.197 1150.9 440.998 1163.89 466.93C1175.47 441.682 1190.8 414.682 1203.34 389.348L1266.51 389.374C1257.04 411.893 1237.1 448.834 1225.55 471.874C1205.58 512.112 1185.28 552.186 1164.66 592.092C1155.19 572.321 1142.12 549.041 1131.86 529.183C1107.77 482.385 1083.37 435.744 1058.68 389.261Z"/><path d="M719.118 390.043C764.182 389.001 812.907 389.948 858.239 390C857.94 406.079 857.853 422.162 857.977 438.243L818.612 438.271C818.826 475.06 818.834 511.849 818.635 548.638L818.575 589.298L759.814 589.325C759.91 539.201 759.444 488.304 760.247 438.261L719.434 438.013C718.531 424.118 719.11 404.374 719.118 390.043Z"/><path d="M1275.16 389.616C1293.9 389.674 1314.53 390.134 1333.12 389.274C1335.23 453.217 1333.66 524.876 1333.79 589.338L1275.18 589.28C1273.91 523.923 1274.77 455.093 1275.16 389.616Z"/></svg>
